HIERARCHY
ROOT pelvis
{
  OFFSET 0 100 0
  CHANNELS 6 Xposition Yposition Zposition Zrotation Xrotation Yrotation
  JOINT pelvis_right_femur
  {
    OFFSET -10.78128 -3.44521 -0.5502486
    CHANNELS 3 Zrotation Xrotation Yrotation
    JOINT right_femur_tibia
    {
      OFFSET -0.8047443 -44.0398 -0.1307829
      CHANNELS 3 Zrotation Xrotation Yrotation
      JOINT right_tibia_foot
      {
        OFFSET 3.006224 -47.83518 -5
        CHANNELS 3 Zrotation Xrotation Yrotation
        End Site
        {
          OFFSET 0 -5 15
        }
      }
    }
  }
  JOINT pelvis_left_femur
  {
    OFFSET 10.78128 -3.44521 -0.5502486
    CHANNELS 3 Zrotation Xrotation Yrotation
    JOINT left_femur_tibia
    {
      OFFSET 0.8047443 -44.0398 -0.1307829
      CHANNELS 3 Zrotation Xrotation Yrotation
      JOINT left_tibia_foot
      {
        OFFSET -4.370144 -48.10324 -4.275266
        CHANNELS 3 Zrotation Xrotation Yrotation
        End Site
        {
          OFFSET 0 -5 15
        }
      }
    }
  }
  JOINT pelvis_spine1
  {
    OFFSET 0 6.468898 -3.129235
    CHANNELS 3 Zrotation Xrotation Yrotation
    JOINT spine1
    {
      OFFSET 0 23.15396 4.99043
      CHANNELS 3 Zrotation Xrotation Yrotation
      JOINT spine2
      {
        OFFSET 0 20.79997 -5.064912
        CHANNELS 3 Zrotation Xrotation Yrotation
        JOINT neck
        {
          OFFSET 0 14.38658 9.616178
          CHANNELS 3 Zrotation Xrotation Yrotation
          End Site
          {
            OFFSET 0 20 0
          }
        }
      }
      JOINT right_manubrium
      {
        OFFSET -5.722621 16.35077 3.967754
        CHANNELS 3 Zrotation Xrotation Yrotation
        JOINT right_clavicle
        {
          OFFSET -13.16364 1.694482 -4.693211
          CHANNELS 3 Zrotation Xrotation Yrotation
          JOINT right_humerus
          {
            OFFSET -28.5034 -0.3100689 -2.792744
            CHANNELS 3 Zrotation Xrotation Yrotation
            JOINT right_radius
            {
              OFFSET -25.15693 0.02248979 -1.271978
              CHANNELS 3 Zrotation Xrotation Yrotation
              End Site
              {
                OFFSET -15 0 0
              }
            }
          }
        }
      }
      JOINT left_manubrium
      {
        OFFSET 5.722621 16.35077 3.967754
        CHANNELS 3 Zrotation Xrotation Yrotation
        JOINT left_clavicle
        {
          OFFSET 13.16364 1.694482 -4.693211
          CHANNELS 3 Zrotation Xrotation Yrotation
          JOINT left_humerus
          {
            OFFSET 29.39168 -1.063119 -2.237045
            CHANNELS 3 Zrotation Xrotation Yrotation
            JOINT left_radius
            {
              OFFSET 24.59957 -0.9528479 0.9047498
              CHANNELS 3 Zrotation Xrotation Yrotation
              End Site
              {
                OFFSET 15 -0 -0
              }
            }
          }
        }
      }
    }
  }
}
MOTION
Frames: 6
Frame Time: 0.0416666666667
0 103.5113 0 0.8847877 -1.625133 0.07171891 3.480846 -13.95371 9.230403 -7.386068e-07 35.69069 5.78525e-07 -7.025819 -17.26171 -4.284104 -6.719782 7.259169 -22.82913 -6.52817e-07 5.423204 -8.913327e-07 7.631264 -17.24011 27.02137 -4.209517 -2.638913 4.38202 2.676938 9.366941 -7.84369 1.133915 22.31028 6.793768 3.067024 -23.70497 8.965913 6.609232 -20.18029 11.72458 84.93509 37.00709 -17.51698 -9.833974e-08 1.711667e-09 16.65904 -6.624619 8.743406 5.151721 5.017797 -19.15078 -1.449333 -95.64788 29.96538 24.44217 -3.028762e-07 5.308988e-07 -14.05181 3.310208 17.17926 10.25178
0.3369092 103.4309 1.046333 0.8284538 -1.421214 0.2307788 3.621157 -15.70313 9.147417 -6.845722e-07 37.14185 5.485673e-07 -6.700104 -16.57627 -4.276235 -6.797772 8.642863 -22.83576 -5.856807e-07 5.386544 -7.960253e-07 7.370831 -17.74165 26.29013 -4.096247 -2.703228 4.293433 2.658091 9.374296 -7.971957 1.100656 22.18926 6.929416 3.064559 -23.77476 9.100435 6.583071 -20.01643 11.70719 85.48737 36.66026 -18.25702 -8.364779e-08 4.813048e-09 16.62726 -6.65679 8.824329 4.990099 5.015416 -19.30086 -1.596842 -95.33992 29.96989 24.09714 -2.855353e-07 4.738208e-07 -14.91354 3.30714 17.0017 10.30014
0.6873931 103.3747 2.294246 0.7437106 -1.019796 0.4768294 3.836959 -17.72062 8.844715 -6.030914e-07 37.00804 5.238081e-07 -6.383402 -15.61383 -4.059378 -6.838142 9.983874 -22.70015 -4.865604e-07 5.361016 -6.972042e-07 6.961791 -18.38241 25.42453 -3.934595 -2.736632 4.207872 2.669823 9.358682 -8.07803 1.058841 22.02104 7.120736 3.142998 -23.95849 9.22573 6.488916 -19.80042 11.7021 86.01833 36.28644 -19.08387 -6.585424e-08 8.266701e-09 16.41132 -6.849297 8.861706 4.898928 5.166003 -19.57496 -1.738548 -94.91904 29.85112 23.53101 -2.478059e-07 4.048244e-07 -16.13968 3.428537 16.7815 10.17769
1.043634 103.2745 3.80922 0.6310552 -0.4221327 0.7706537 4.10184 -19.77574 8.345663 -5.035253e-07 35.15837 5.126136e-07 -6.098917 -14.37309 -3.612675 -6.846154 11.1101 -22.43688 -3.602698e-07 5.385699 -6.090138e-07 6.405412 -19.0953 24.50779 -3.738782 -2.73416 4.139528 2.714679 9.318509 -8.138518 1.014255 21.81008 7.364311 3.317919 -24.26677 9.33429 6.349599 -19.5431 11.71499 86.44353 35.9523 -19.90369 -4.590822e-08 1.228429e-08 16.01494 -7.206792 8.849395 4.907936 5.475878 -19.93813 -1.84236 -94.46459 29.60964 22.82712 -1.913696e-07 3.268086e-07 -17.59631 3.655841 16.52035 9.910216
1.394433 103.0657 5.636656 0.5054488 0.2921805 1.080735 4.402218 -21.97571 7.722768 -3.934621e-07 31.95215 5.192358e-07 -5.791913 -12.93029 -3.042604 -6.836576 12.17766 -22.0771 -2.126264e-07 5.547102 -5.328622e-07 5.715202 -19.91135 23.57052 -3.522455 -2.689844 4.077652 2.78421 9.25584 -8.168643 0.9775778 21.5809 7.649872 3.567899 -24.64737 9.440857 6.175418 -19.21692 11.7423 86.84259 35.61492 -20.78603 -2.430487e-08 1.690575e-08 15.44283 -7.70475 8.81157 4.969066 5.925934 -20.38139 -1.926158 -93.95863 29.29463 21.9095 -1.232807e-07 2.42699e-07 -19.309 3.940923 16.21004 9.550244
1.729677 102.699 7.778939 0.3701314 1.059387 1.367438 4.697957 -23.94037 7.043509 -2.882539e-07 27.67083 5.459445e-07 -5.551098 -11.47035 -2.393415 -6.796719 12.96868 -21.65109 -6.398885e-08 5.840564 -4.879442e-07 4.972713 -20.66074 22.70882 -3.306925 -2.613486 4.028882 2.87549 9.170446 -8.157012 0.9500793 21.33753 7.93089 3.86025 -25.05252 9.515404 5.991201 -18.86089 11.77071 87.04309 35.35973 -21.54445 -4.250806e-09 2.11855e-08 14.74967 -8.244294 8.737006 5.077714 6.450192 -20.82676 -1.958899 -93.40925 28.93392 20.91917 -5.180129e-08 1.635926e-07 -20.99026 4.261862 15.89086 9.122479
